/* XPM */
static char *cartoon_stone_texture_brown_colors_seamless_background_172107_380__1_1674851229[] = {
/* columns rows colors chars-per-pixel */
"60 60 254 2 ",
"   c #2A0300",
".  c #380A00",
"X  c #3C1602",
"o  c #431500",
"O  c #451C00",
"+  c #4C1D01",
"@  c #4B1400",
"#  c #511E00",
"$  c #430D00",
"%  c #4D2301",
"&  c #4B2509",
"*  c #532402",
"=  c #5A2503",
"-  c #542A04",
";  c #5B2B04",
":  c #53240B",
">  c #542A0B",
",  c #5B2C0B",
"<  c #59250B",
"1  c #5D320C",
"2  c #593104",
"3  c #4A2918",
"4  c #552C12",
"5  c #5B2D13",
"6  c #552918",
"7  c #553114",
"8  c #5D3213",
"9  c #5D331B",
"0  c #5A361B",
"q  c #612C0C",
"w  c #612902",
"e  c #63330C",
"r  c #6B3A0C",
"t  c #66350A",
"y  c #622E11",
"u  c #632F1A",
"i  c #633413",
"p  c #6B3514",
"a  c #643A13",
"s  c #6C3C14",
"d  c #62331C",
"f  c #643B1C",
"g  c #6B3C1B",
"h  c #6B351C",
"j  c #733D15",
"k  c #733E1C",
"l  c #78381C",
"z  c #733C0B",
"x  c #5A3825",
"c  c #5A372D",
"v  c #653B23",
"b  c #6C3D23",
"n  c #663D2B",
"m  c #693A29",
"M  c #743E22",
"N  c #602F20",
"B  c #6D421C",
"V  c #6A4117",
"C  c #744114",
"Z  c #72431D",
"A  c #78481B",
"S  c #774A17",
"D  c #6D4222",
"F  c #6D442A",
"G  c #694526",
"H  c #734423",
"J  c #7A4524",
"K  c #754A25",
"L  c #7B4B23",
"P  c #73442B",
"I  c #754B2B",
"U  c #7B4C2B",
"Y  c #7B452C",
"T  c #7C522C",
"R  c #7B5326",
"E  c #694636",
"W  c #744B32",
"Q  c #7A4D33",
"!  c #754835",
"~  c #7D5333",
"^  c #7A5537",
"/  c #7C5641",
"(  c #714D43",
")  c #834A1D",
"_  c #844E23",
"`  c #824D2C",
"'  c #824322",
"]  c #835225",
"[  c #83532C",
"{  c #8A552C",
"}  c #8B5A2D",
"|  c #875729",
" . c #925A2C",
".. c #995D29",
"X. c #854D37",
"o. c #835433",
"O. c #8A5333",
"+. c #855933",
"@. c #8B5B33",
"#. c #83553C",
"$. c #845A3A",
"%. c #8C5C3B",
"&. c #8A543B",
"*. c #915D35",
"=. c #935E3C",
"-. c #945638",
";. c #8C6133",
":. c #8D623C",
">. c #85613A",
",. c #946235",
"<. c #94633C",
"1. c #9A653C",
"2. c #956A3D",
"3. c #9A6A3D",
"4. c #9B6737",
"5. c #97662F",
"6. c #A46838",
"7. c #AD733C",
"8. c #A9763A",
"9. c #B3743D",
"0. c #B47B3D",
"q. c #BA783B",
"w. c #855943",
"e. c #975F46",
"r. c #8D6345",
"t. c #946543",
"y. c #9B6443",
"u. c #956B45",
"i. c #9C6B44",
"p. c #94654C",
"a. c #9C6C4B",
"s. c #966A4D",
"d. c #9C724B",
"f. c #9C7245",
"g. c #9A6C52",
"h. c #996A55",
"j. c #9C7252",
"k. c #977354",
"l. c #8E724D",
"z. c #A26D44",
"x. c #A36D4A",
"c. c #AA6D48",
"v. c #AB7444",
"b. c #AD7A44",
"n. c #A3734A",
"m. c #AB744B",
"M. c #AB7A4C",
"N. c #A37646",
"B. c #B37541",
"V. c #B57B44",
"C. c #BB7C44",
"Z. c #B47C4B",
"A. c #BC7E4B",
"S. c #B5754B",
"D. c #A56E51",
"F. c #A47452",
"G. c #A57A53",
"H. c #AC7B53",
"J. c #A57B5C",
"K. c #AC7C5B",
"L. c #A87658",
"P. c #B27C53",
"I. c #B97B54",
"U. c #B27D5B",
"Y. c #B87856",
"T. c #A97B64",
"R. c #9F7964",
"E. c #C07E4B",
"W. c #C07F47",
"Q. c #C17C58",
"!. c #B9853D",
"~. c #B5824C",
"^. c #BC824C",
"/. c #BC894D",
"(. c #B98645",
"). c #AD8254",
"_. c #AD825C",
"`. c #B48354",
"'. c #BB8453",
"]. c #B58A56",
"[. c #BD8B54",
"{. c #B4835B",
"}. c #BB845C",
"|. c #B58B5B",
" X c #BC8B5B",
".X c #BC925D",
"XX c #BB9453",
"oX c #AD814C",
"OX c #AE8362",
"+X c #B48464",
"@X c #B98463",
"#X c #B48A63",
"$X c #BB8B63",
"%X c #B68C69",
"&X c #BA8A6A",
"*X c #BD9268",
"=X c #BD9370",
"-X c #C2844B",
";X c #C48A4C",
":X c #C88B4B",
">X c #CA924D",
",X c #D1994F",
"<X c #C28553",
"1X c #C38C54",
"2X c #CB8C54",
"3X c #C38C5C",
"4X c #C98C59",
"5X c #C4855C",
"6X c #C39255",
"7X c #CB9554",
"8X c #CC9A55",
"9X c #C4935C",
"0X c #CB945C",
"qX c #CC9A5C",
"wX c #C5995C",
"eX c #D29554",
"rX c #D39C55",
"tX c #D2955B",
"yX c #D39B5B",
"uX c #D99A5C",
"iX c #D48E50",
"pX c #D5A15D",
"aX c #C28D63",
"sX c #C78A65",
"dX c #C49363",
"fX c #CB9563",
"gX c #C69A63",
"hX c #CC9B63",
"jX c #C4946B",
"kX c #CB946B",
"lX c #C49A6A",
"zX c #CC9C6B",
"xX c #D39562",
"cX c #D39C64",
"vX c #D29C6B",
"bX c #D99A68",
"nX c #CB9C74",
"mX c #C69974",
"MX c #D39E74",
"NX c #C28F70",
"BX c #CDA36C",
"VX c #CBA266",
"CX c #D4A165",
"ZX c #D4A36B",
"AX c #DBA368",
"SX c #CEA276",
"DX c #D4A474",
"FX c #D3A379",
"GX c #D9A976",
"HX c #DBB17C",
"JX c #E1AE77",
"KX c #E09C5B",
"LX c #DDAC82",
"PX c #E6B885",
/* pixels */
"../.~.[ M K.dX0XuX-X5XI.S.v.a e +.<.t.u.F.F./ N 6 n F x ! h.W U kXbXxX4X1X<XB.Z.sXx.X.Y 9 P 7 n / w.v X.L.=.M &.a.h.e.w.",
"z @.M.%.5 #.|.'.7.A.Y.Y.@X{ o.P 2 t B H D 8 d F ! 9 w.W 6 v : g `.0XxX0X8.0.(.P.kXY.X.X.f f 9 ^ p.! 5 , J p # = q q # # ",
": 5 Q / 6 3 ~ 3. X`.Q.D.&.: ! ^ ; * % + % + 8 T ^ 8 d v 4 4 v > dX1XV.b.b.6X6X6X<X5X' l >.%X>.& 5 , T <.M.'.4X'.M.m.1.} ",
"T.Q @ 6 E G > - ` ` m 6 d u 6 ! +.2.N.M.).f.+.K - a 0 V T #.j.^ L .XlX|.[..X3.{ C =.j * G oX^ 7 i , ).ZXVXhXCXqXCXCXqX9X",
"vXvXx.H N N ! O.@.[ y M p } {.$XzXGXGXzXBXBXlX.X).A 2 1 u.%XOX$.o r.G.u.R g 1 J O.@.` h i d 7 / f.V N.VXwX7X8X8XyXpXqXqX",
"tXCXvXH./ m J.#X&Xy.y h c.kXcXZXdXgX9X0XhXhXgXVXlXhX).V 2 o.>.> < O o % % T j._.+XK.T.^ 9 9 x l.%XR 2.VXVXqX8X8X,X8X8XyX",
"rX7XgXDXT.F ^ w.^ 8 d %.'.cX8XpXCXcXqXqXcXqX6X8XqXZXgXlX;.% & , M e.Y.=.- H t.e.L.e.F & 6 E c 3 W r L dXhXhX8XqXbXuXcXuX",
"8XrXwXlX%X4 O > % f 5 J..X8.;X8XqXcXxXuXyX8XrXyX8XpXqXkXBXH.i =.Y.Y.U.L.M = % , > 5 d W E c c c > 8 g {.dXZXtXcXxXxXtXxX",
"qXpXqXdX{.d A ;.R 2 8 2.3X~.8.;X2X2X-X:XiXeXrXrX8XqXhXkXfXjXJ %.U.m.U.#XU D %.g s M.jXjX*Xd.% I p.Q i x.3X3X4X4X4XtXxXuX",
"oX1Xb.~.m.M ].].8.R V B `.^.-X0.9.9.B.C.:XiXeXuXAXqXhXvXdXnX+.* f g H o.^ t.|.4.] vXqXcXvX`.; K.+XT.` *.`.v.B.E.E.E.E.E.",
"^.B.7.vXY.w  .V.'.{ 8 O.A.4XC.q.E.E.C.q.q.C.:X7X>XtX3XsX}.K.U > g b 4 : : 8 $.+.r 6X0XV.1X`.j x.a.K.` j }.0X-X7.9.9.W.W.",
"v.~.aXI.-.w w C } ` b w.-.xX<X-XB.B.C.C.C.q.9.B.-X3XdXaX+.H v H D.K.K.x.P 5 g Z w ]  X3XaX*.- & < i q L '.'.<X0XE.A.C.B.",
"SX=Xl.- & 5 g K : & c / j.@XzXvXxXtX<XA.C.I.4XxXaXzX$X:.H v 7 U S.S.Q.Y.` M &.:.t 1 +.$.E x c E n i 1 R 4.8.b./.4X3X'.'.",
"l.W X & Q p.%XnXJ.F 6 ( p.r.@.3.}.5XfXbXvXkX4X}.P.@.Z 2 8 0 7 B  .c.I.-.p u H g g Z f - . 3 c ( ! 0 > 9 a <.M.z.z.m.`.aX",
"7 O 0 oXnXMXCXXXBX).B > 8 +.[ [ |  .1.v.S.m.1.*.J # V ^ 0 0 G 7 2 Z g : : Q l.G. XwX6XgXM.@.f v r.^ r.k.K i L <.@.O.O.O.",
"E & oXSXfXcX7XrXqXVX).0 1 - V Z _ ` { @.*.[ j q + H.=X*X=X^ 7 f V K f f j.mXSXFXzXhXCXyXcXcX`.@.& 0 k.R.$.- , g k g f g ",
"( & OXBX>XuXiXxXcXsX3X,.t +.H v b g H W 8 * 8 ; M.DXGXhXvX6Xb.C 1.aX1.*.dXsX0X9X0X8X>X7X7XqXAXcXoX2 V 8 > G a i = = l <.",
"c 3 d.hX,X,XeXiX<XA.'.M.Z g.F.v 4 d d 4 I ^ 8 G.LXaXP.1X<X~.'. .[ { A v.3XcXyX(...,XuXrXyX7X:X[.*X;.V 1 d.LXnX=X{.*.Z A ",
"c 3 :.hXCXuX2XB.E.Z.[.zXL > 9 9 g [ L.+XOX%XI #X%XK.{.$X{.i.i.H i , ; | '.6XcXcX0.8X>X-X<XA.Z.}.|.+.H T %X%XjXjXFX$X{ w ",
"E 0 f.zXcXtXE...6.B.~.].;.W n m g 3.i.d.a.+.8 ~ @X=X#XF.L.#.Y v p.#.g Z |. X6X^.(.V.V.0.B.A.5XQ.o.R & - #X%XG.gXkXGX`.t ",
"x % _.lXI.<X5X'.'.v.~.].>./ c x , * * C 1 * a - - 8 7 7 w./ F X v 9 * T f.jXwX[./.~.'.3XsXkXY.-.: N 5 + ~ %X).f.`.zX~.t ",
"V % G.$Xc.c.c.S.Z.dXBXoXK ^ x E ` @.1.F._.[ 8 H V - 7 7 & . F R.$.W f g :.n.N.|. XdXdX}.Y.-.l X.T.P w.P X R .X].[.wX6XS ",
"0 > I mXMXkXkXkXdX|.).#X>.G & ! D.F.@X@X<.Z - e ^ T G & 8 u.mXSXFX+XO.- Z B B L @.i.x.{ t @ q P.L.Q P H , * +.).3.M. X] ",
"v G O _.@Xx.c.x.@.B R d.i 8 G 8 P #.` J = s U [ R 8 2 S .XBX*XVXzXnXlX<.% 1 H H K g g ; , _ @.@.t.N.<.V 2 % | ;.] ,.z.t ",
"x x G & O * t = i Z B f * i s a % 5 i t.sXLXGXHXSX;.% ].VXwX8XyX7XcXhX X=.< 5 v v 0 0 2 ^ lXVXVXhXhX XH.Z - a a H j p y ",
"^ x 0 ^ :.+.L | , 5 : 4 a.+X].*XF.: o.SXLXJXPXHXHX.XS b.qXAXiX,XKX!.B.3X@XQ b n k.l.I X 2.lXVXXX8XqXCXhX|.Z i &.y.D.P.Y.",
"x 7 x >.|.jX).).e.9 m W NXmXcXZX#XV ).GXJXAXGXCXZX.XN.8.bX2XeXKX:X:Xq.v.H.t.#.n / E 3 G |.].!.oX!.!.;XXXBX<.H a.@XU.L.1.",
"G G V 7 i +.3.:.U 4 m m OXmX9X[.oXV lXBX0X0XcXCX.XHXM.C GXxXuXiXq.9.C.<XsXt.! ! G x 7 ).lXwXXX8XpX,X8XpXjXN.p i q p l j ",
"*XlX&XU.U = 1 % K OXR.3 Q #X].].).& 2.GXZXCXvXzXnXSXT K Z.xXbXiXq.C.V.v.{.n.>.W W F 1 _.jXdX6XqXyXeX7XqX X} A p _ z.5X3X",
"VXqXkXFXn.i a s 1 k.R.x x l.2.;.x 2 ^ oXM.A.Z.`.G.R 2 R dXsX<X9.9.C.^.zXFX_.H V B f % K nXkXfXxXtXtX4X^.v.r ] v.fXvXAXcX",
",X8XbXMX@XY ; t Z f x x 9 x -   & 7 % % r A C r . R >.2 *X`.6.C.A.vXaXM.N.).R 8 n.+X[ ; 6.Q.sXI.B.S.I.S.*.5.[.GX0XqX8X8X",
"pX,X4XI.U.x.U _.%Xd.G 7 v > D r.h.g.u.:.j * ,.|.l.^ G   T SX6X0XdX}.@.L K ~ 1 A ;.:.Z = h -.Q.Q.sXI.B.=.# ].ZX0XqXyXyXyX",
":XV.V.I.@Xh ` t.Z , g o.U [  XZXzXkXvXZXfXb.5.| _.T H r.% d.).;.S i 8 d N < - | f.A 5 w.m # ' x.y.Y H 1.` [ aXvXfXvXyX7X",
"7.V.m.sXy.  J { i.s , t.i.j `.hXbXAXuX1XyXCX1X4.; i o.J.$.O & 2 V V #.p.R.T.t.Z :.R 5 P m b p # # o g L.F.s } zX X/.7.0.",
"4X4XkXD.$ P..XCXcXdXt.J y ; dXcX2XeXuXeXtXcXCXkXm.s U 8 8 G.G.V ; @.@X%X#XK.o.* % T i.G.L.$XsXaX{. XL r y.s o @. X3XA.~.",
"b.m.x.h }.DXhXpXqXqXDXa.M > 3.dXAXeXeXpXuX7XqXvXzXO.e g g @.).@.+ * ; V A * % #.H K.FXDXVXvXzXnXVXdXjXH.q A i.j 1.'. X'.",
"x.` * } vX0X8X8X;XoX.XP.@.- ~ nXtXeXyXeXrXyXuXcXsX1.=.z.j . L ] <.P.v.3.~.M.O.g e :.dXwXqXhXwXhXVXqXhXDXP.i.$X] Z z.v.z.",
"1 a V | hXCX/.8X8.0.b. Xt.* W K.B.(.:X-X-X1X4X1X3X_ Z _ _ z.zXdXMXhXhXZXCXlX#X&.+ J dXqX8XpXhXCXqXqXhXzXjXt =.%.# r p r ",
"Z V [ G.jXfXCX,X!.!.N.&Xp.: f G.3XC.9.9.C.(.B.v.fX .= v.MXfXaXZX6XqXCXCX9XzXSXa.i t `..X/.wX6X/.6XqXhXfX).# i + J i.1.<.",
"| V Z a.LXfX/.(.8.0.{.@Xp.Q G d.aX1X<X'.V.m.'.4XZ.w Z.cXcXfXcXqXyXpX7X0XhXgX{.@.g * N.dX/.~./.[.[./.'. Xi.%.a.J U @X$Xm.",
"2 2 * U F.@X~.7.oX~.NXp.u w.B u.x.}.`.@XsX{.sXz.) '.[.9XZXqXqXyX,X,X8XqX0X9X`.H i - L $X} 4.8.3.Z.[.dXH.[ a.K.t.; e ; - ",
"BXlXd.X p n.I.dXkX`.-.5 5 % 1 1 ;.i.H.m.U.kXp r 9XDX~.b.6XqXCX7XpX>XrXrX[. XH.g 5 g g - r p j j r _ { i = M b , Z 2.`.XX",
"PXHXlX:.1.J k D.O.u k t.G.G.B V Z J &.` J q # U.vXhX/.1X7X/.1XqX:XuXrX!.;XgXt.5 w.J.D.{.{.[ < =.L g =.o.b s.a.I n.SXPXPX",
"BXwXDXH.@.a.q k , $ e.K.<.R - R @.* = i M < i.kXzXfXtXCX7X7.9.C.V.0.0./.cXv.e 5 ! a.a.K.a.e.b X.H O.&Xg.: b Q %.lXHXHXDX",
"VXwX*XnXp i i.nXaX@.y u t.x.`.wX`. X<.s ` J m.DXkXcX2X;Xq.B.E.9.4X9.-X0XZ.R 1 H I K I g Z - u Y +.K b H F +.a d.LXHXGXZX",
"pXwXLXjXK ,. XwXgXDXO.i NXFXhXqXZXCXvXzXx.w P.v.^.C.C.0.9.E.E.C.6.A.vXsX*.t ; a V K g > #.n.U.&XT.t.5 > f r.B ;.SXSXBXBX",
"hXCXH.] V r oXgXgXBX`.. x.3X X0X9X6X6XvXZ.$ c.xXE.C.C.W.W.9.S.E.bXbXU.y.M q ;..X).;.- u w.F.t.M.t.1 < #.$.a % B XXXXwXXX",
"A C w V t.Z S ].|.|.H.# L dXM.`.~.[.3X3Xm.} k 6.4X-XC.9.E.2XsXbXsXQ.D.X.= L dXgXVX.Xn.i 5 - s 1 . K |.*XFX{.R 2 V R R S ",
"j t # *._.#.& p.d.2.+.e < w.L [ @.i.F.u.~ $.8 p { ^.xX4XxXbXfXz.y.-.&.g i ).zX0XtXAXbXZ.q [ T % ;.gXvXfXfXcXfX<.* e V T ",
"S.c.M.s % 9 n v f B O g F @ $.Z ; * H 8 4 u.$.Z  . .A.xXb.| @.@.=.&.H , Z  XzXcXeX7X2X-X .Z ^ +.gXCXqXrXyXuXcX5XL i a.d.",
"U.P.`.] o.s./ 6 2 V <.d.K.#.H [ 1XvX}.m.;.+.2.1 C { 4.,.[ +.U I g i e , 1 i.kXhXAX<XB.V.3.* H d.qX7XrXuXuX:X-XI.6.e a.L.",
"S.L.m.} D v v P i i._.{.+XH % dX6XyXAXZX|.2.r t L _ [ | Z v 7 G H Z t.t.a T $XhXfX^.B.'.v., H %.9X7XyXyX2X(.B.'.x.< g t.",
"A A = % @ D OXJ.j s ,.<.H g mXDXyX>X;X6X`.].;.f.m.e ; U B $.w.G y.P.@Xn.L a i.jXaX3X`.aXz.H t.@.BXqXqX9X/.Z.M.}.a.> 4 m ",
"w *.3.i.:., K g + t w C . t.*X Xb.oXb.].3.8.;.s | } 1.n.O.$.s.@.F.{.{.{.t.Z u.H.).).m.M.L ` F.a.BX6X~./.Z.M.H.|.a.g #.v ",
"l P.{.H.:.; [ n.M.b.'.v.*.s {.$X*X).*X).T R a t ,.jXkXMXjXL w w _ ) _ 1.@.a R Z K [ @.%.Z [ t.{ 3X<X9.7.0.A.5XP.} =.}.-.",
"l K.{.i.; +.zXnXzXvXhXxX}.[ a %.+.:.K t.2.g [ 3.H.FXkXkXfX) ) ) .. .w * e o V ~ T o.o.k i H l # ] A.I.'.'.}.I.| q P.U.y.",
"` #XL.i * M.zXzX9XbXcXcXhXaXL   % + & 8 i < , , O.kX{. X`.{ ) C z ) v.fXaXn.J % a o.f f d.K.L.J @ J x.mX@Xa.K i g T [ Z ",
"p t.[ o R dXgX1XvXCX0X0XfXFX`.U u.Y < q ' O.O.J ; t.{.{.n.s = t 7.<XbXvXvXFXjXu.1 ^ o.f e.U.t.= O.U < P P 5 8 < , g A Z ",
"o.+ > i G. XVXcXqXcXuXcXqXhXi.g e.c.c.S.Y.I.U.Y.U I P 8 8 8 1 d.hXcXcXcX0XhXjX+X_.f > 8 o.Y q O.z.' q O.O.p p { 1.B.C.C.",
"H Q #.% f.gXcX6XtXyXtXcX0X1X@.q -.c.Q.Y.I.Y.Y.c.O.i 8 0 l._.$.).GX7X7XcXqX~.M.`.=X$.Q g j.U.` L ' # -.@XI.=.p c.A.E.W.q."
};
